<mxfile host="app.diagrams.net" modified="2023-11-15T10:21:31.264Z" agent="Mozilla/5.0 (Macintosh; Intel Mac OS X 10_15_7) AppleWebKit/537.36 (KHTML, like Gecko) Chrome/119.0.0.0 Safari/537.36" etag="GcP7Fv6lIx2KUEUfV7NP" version="22.1.1" type="device">
  <diagram name="Seite-1" id="cteD2D0Qc9Zal3r4ElEx">
    <mxGraphModel dx="1026" dy="1856" grid="1" gridSize="10" guides="1" tooltips="1" connect="1" arrows="1" fold="1" page="1" pageScale="1" pageWidth="827" pageHeight="1169" math="0" shadow="0">
      <root>
        <mxCell id="0" />
        <mxCell id="1" parent="0" />
        <mxCell id="6f0Q5xWEOluiDl8K530b-8" value="" style="group;" parent="1" vertex="1" connectable="0">
          <mxGeometry x="347" y="-870" width="120" height="80" as="geometry" />
        </mxCell>
        <mxCell id="6f0Q5xWEOluiDl8K530b-1" value="" style="ellipse;whiteSpace=wrap;html=1;fillColor=#dae8fc;strokeColor=#6c8ebf;" parent="6f0Q5xWEOluiDl8K530b-8" vertex="1">
          <mxGeometry width="120" height="80" as="geometry" />
        </mxCell>
        <mxCell id="6f0Q5xWEOluiDl8K530b-2" value="Start" style="text;html=1;strokeColor=none;fillColor=none;align=center;verticalAlign=middle;whiteSpace=wrap;rounded=0;" parent="6f0Q5xWEOluiDl8K530b-8" vertex="1">
          <mxGeometry x="30" y="25" width="60" height="30" as="geometry" />
        </mxCell>
        <mxCell id="6f0Q5xWEOluiDl8K530b-9" value="" style="group" parent="1" vertex="1" connectable="0">
          <mxGeometry x="330" y="-780" width="134" height="60" as="geometry" />
        </mxCell>
        <mxCell id="6f0Q5xWEOluiDl8K530b-3" value="" style="shape=parallelogram;perimeter=parallelogramPerimeter;whiteSpace=wrap;html=1;fixedSize=1;fillColor=#ffe6cc;strokeColor=#d79b00;" parent="6f0Q5xWEOluiDl8K530b-9" vertex="1">
          <mxGeometry x="14" width="120" height="60" as="geometry" />
        </mxCell>
        <mxCell id="6f0Q5xWEOluiDl8K530b-4" value="Nummer" style="text;html=1;strokeColor=none;fillColor=none;align=center;verticalAlign=middle;whiteSpace=wrap;rounded=0;" parent="6f0Q5xWEOluiDl8K530b-9" vertex="1">
          <mxGeometry x="44" y="15" width="60" height="30" as="geometry" />
        </mxCell>
        <mxCell id="6f0Q5xWEOluiDl8K530b-5" value="E" style="text;html=1;strokeColor=none;fillColor=none;align=center;verticalAlign=middle;whiteSpace=wrap;rounded=0;" parent="6f0Q5xWEOluiDl8K530b-9" vertex="1">
          <mxGeometry y="30" width="60" height="30" as="geometry" />
        </mxCell>
        <mxCell id="6f0Q5xWEOluiDl8K530b-10" value="" style="group" parent="1" vertex="1" connectable="0">
          <mxGeometry x="337" y="-710" width="120" height="60" as="geometry" />
        </mxCell>
        <mxCell id="6f0Q5xWEOluiDl8K530b-6" value="" style="rounded=0;whiteSpace=wrap;html=1;fillColor=#f8cecc;strokeColor=#b85450;" parent="6f0Q5xWEOluiDl8K530b-10" vertex="1">
          <mxGeometry width="120" height="60" as="geometry" />
        </mxCell>
        <mxCell id="6f0Q5xWEOluiDl8K530b-7" value="Match Nummer" style="text;html=1;strokeColor=none;fillColor=none;align=center;verticalAlign=middle;whiteSpace=wrap;rounded=0;" parent="6f0Q5xWEOluiDl8K530b-10" vertex="1">
          <mxGeometry x="30" y="15" width="60" height="30" as="geometry" />
        </mxCell>
        <mxCell id="6f0Q5xWEOluiDl8K530b-11" style="edgeStyle=orthogonalEdgeStyle;rounded=0;orthogonalLoop=1;jettySize=auto;html=1;exitX=0.5;exitY=1;exitDx=0;exitDy=0;entryX=0.5;entryY=0;entryDx=0;entryDy=0;" parent="1" source="6f0Q5xWEOluiDl8K530b-1" target="6f0Q5xWEOluiDl8K530b-3" edge="1">
          <mxGeometry relative="1" as="geometry" />
        </mxCell>
        <mxCell id="6f0Q5xWEOluiDl8K530b-12" style="edgeStyle=orthogonalEdgeStyle;rounded=0;orthogonalLoop=1;jettySize=auto;html=1;exitX=0.5;exitY=1;exitDx=0;exitDy=0;entryX=0.558;entryY=0;entryDx=0;entryDy=0;entryPerimeter=0;" parent="1" source="6f0Q5xWEOluiDl8K530b-3" target="6f0Q5xWEOluiDl8K530b-6" edge="1">
          <mxGeometry relative="1" as="geometry" />
        </mxCell>
        <mxCell id="6f0Q5xWEOluiDl8K530b-17" value="richtig" style="edgeStyle=orthogonalEdgeStyle;rounded=0;orthogonalLoop=1;jettySize=auto;html=1;exitX=1;exitY=0.5;exitDx=0;exitDy=0;entryX=0;entryY=0.5;entryDx=0;entryDy=0;" parent="1" source="6f0Q5xWEOluiDl8K530b-13" target="6f0Q5xWEOluiDl8K530b-16" edge="1">
          <mxGeometry relative="1" as="geometry" />
        </mxCell>
        <mxCell id="6f0Q5xWEOluiDl8K530b-19" value="falsch" style="edgeStyle=orthogonalEdgeStyle;rounded=0;orthogonalLoop=1;jettySize=auto;html=1;exitX=0.5;exitY=1;exitDx=0;exitDy=0;entryX=0.5;entryY=0;entryDx=0;entryDy=0;" parent="1" source="6f0Q5xWEOluiDl8K530b-13" target="6f0Q5xWEOluiDl8K530b-18" edge="1">
          <mxGeometry relative="1" as="geometry" />
        </mxCell>
        <mxCell id="6f0Q5xWEOluiDl8K530b-13" value="Case 1" style="rhombus;whiteSpace=wrap;html=1;fillColor=#f5f5f5;fontColor=#333333;strokeColor=#666666;" parent="1" vertex="1">
          <mxGeometry x="357" y="-630" width="80" height="80" as="geometry" />
        </mxCell>
        <mxCell id="6f0Q5xWEOluiDl8K530b-14" style="edgeStyle=orthogonalEdgeStyle;rounded=0;orthogonalLoop=1;jettySize=auto;html=1;exitX=0.5;exitY=1;exitDx=0;exitDy=0;entryX=0.5;entryY=0;entryDx=0;entryDy=0;" parent="1" source="6f0Q5xWEOluiDl8K530b-6" target="6f0Q5xWEOluiDl8K530b-13" edge="1">
          <mxGeometry relative="1" as="geometry" />
        </mxCell>
        <mxCell id="6f0Q5xWEOluiDl8K530b-96" style="edgeStyle=orthogonalEdgeStyle;rounded=0;orthogonalLoop=1;jettySize=auto;html=1;exitX=1;exitY=0.5;exitDx=0;exitDy=0;entryX=1;entryY=0.5;entryDx=0;entryDy=0;" parent="1" source="6f0Q5xWEOluiDl8K530b-16" target="6f0Q5xWEOluiDl8K530b-62" edge="1">
          <mxGeometry relative="1" as="geometry" />
        </mxCell>
        <mxCell id="6f0Q5xWEOluiDl8K530b-16" value="Jan" style="shape=parallelogram;perimeter=parallelogramPerimeter;whiteSpace=wrap;html=1;fixedSize=1;fillColor=#ffe6cc;strokeColor=#d79b00;" parent="1" vertex="1">
          <mxGeometry x="480" y="-620" width="120" height="60" as="geometry" />
        </mxCell>
        <mxCell id="6f0Q5xWEOluiDl8K530b-60" value="falsch" style="edgeStyle=orthogonalEdgeStyle;rounded=0;orthogonalLoop=1;jettySize=auto;html=1;exitX=0.5;exitY=1;exitDx=0;exitDy=0;entryX=0.5;entryY=0;entryDx=0;entryDy=0;" parent="1" source="6f0Q5xWEOluiDl8K530b-18" target="6f0Q5xWEOluiDl8K530b-27" edge="1">
          <mxGeometry relative="1" as="geometry" />
        </mxCell>
        <mxCell id="6f0Q5xWEOluiDl8K530b-18" value="Case 2" style="rhombus;whiteSpace=wrap;html=1;fillColor=#f5f5f5;fontColor=#333333;strokeColor=#666666;" parent="1" vertex="1">
          <mxGeometry x="357" y="-530" width="80" height="80" as="geometry" />
        </mxCell>
        <mxCell id="6f0Q5xWEOluiDl8K530b-20" value="richtig" style="edgeStyle=orthogonalEdgeStyle;rounded=0;orthogonalLoop=1;jettySize=auto;html=1;exitX=1;exitY=0.5;exitDx=0;exitDy=0;entryX=0;entryY=0.5;entryDx=0;entryDy=0;" parent="1" source="6f0Q5xWEOluiDl8K530b-18" target="6f0Q5xWEOluiDl8K530b-23" edge="1">
          <mxGeometry relative="1" as="geometry">
            <mxPoint x="437" y="-395" as="sourcePoint" />
          </mxGeometry>
        </mxCell>
        <mxCell id="6f0Q5xWEOluiDl8K530b-97" style="edgeStyle=orthogonalEdgeStyle;rounded=0;orthogonalLoop=1;jettySize=auto;html=1;exitX=1;exitY=0.5;exitDx=0;exitDy=0;entryX=1;entryY=0.5;entryDx=0;entryDy=0;" parent="1" source="6f0Q5xWEOluiDl8K530b-23" target="6f0Q5xWEOluiDl8K530b-62" edge="1">
          <mxGeometry relative="1" as="geometry" />
        </mxCell>
        <mxCell id="6f0Q5xWEOluiDl8K530b-23" value="Feb" style="shape=parallelogram;perimeter=parallelogramPerimeter;whiteSpace=wrap;html=1;fixedSize=1;fillColor=#ffe6cc;strokeColor=#d79b00;" parent="1" vertex="1">
          <mxGeometry x="480" y="-520" width="120" height="60" as="geometry" />
        </mxCell>
        <mxCell id="6f0Q5xWEOluiDl8K530b-25" value="richtig" style="edgeStyle=orthogonalEdgeStyle;rounded=0;orthogonalLoop=1;jettySize=auto;html=1;exitX=1;exitY=0.5;exitDx=0;exitDy=0;entryX=0;entryY=0.5;entryDx=0;entryDy=0;" parent="1" source="6f0Q5xWEOluiDl8K530b-27" target="6f0Q5xWEOluiDl8K530b-28" edge="1">
          <mxGeometry relative="1" as="geometry" />
        </mxCell>
        <mxCell id="6f0Q5xWEOluiDl8K530b-26" value="falsch" style="edgeStyle=orthogonalEdgeStyle;rounded=0;orthogonalLoop=1;jettySize=auto;html=1;exitX=0.5;exitY=1;exitDx=0;exitDy=0;entryX=0.5;entryY=0;entryDx=0;entryDy=0;" parent="1" source="6f0Q5xWEOluiDl8K530b-27" target="6f0Q5xWEOluiDl8K530b-29" edge="1">
          <mxGeometry relative="1" as="geometry" />
        </mxCell>
        <mxCell id="6f0Q5xWEOluiDl8K530b-27" value="Case 3" style="rhombus;whiteSpace=wrap;html=1;fillColor=#f5f5f5;fontColor=#333333;strokeColor=#666666;" parent="1" vertex="1">
          <mxGeometry x="357" y="-435" width="80" height="80" as="geometry" />
        </mxCell>
        <mxCell id="6f0Q5xWEOluiDl8K530b-98" style="edgeStyle=orthogonalEdgeStyle;rounded=0;orthogonalLoop=1;jettySize=auto;html=1;exitX=1;exitY=0.5;exitDx=0;exitDy=0;entryX=1;entryY=0.5;entryDx=0;entryDy=0;" parent="1" source="6f0Q5xWEOluiDl8K530b-28" target="6f0Q5xWEOluiDl8K530b-62" edge="1">
          <mxGeometry relative="1" as="geometry" />
        </mxCell>
        <mxCell id="6f0Q5xWEOluiDl8K530b-28" value="MÃ¤r" style="shape=parallelogram;perimeter=parallelogramPerimeter;whiteSpace=wrap;html=1;fixedSize=1;fillColor=#ffe6cc;strokeColor=#d79b00;" parent="1" vertex="1">
          <mxGeometry x="480" y="-425" width="120" height="60" as="geometry" />
        </mxCell>
        <mxCell id="6f0Q5xWEOluiDl8K530b-61" value="falsch" style="edgeStyle=orthogonalEdgeStyle;rounded=0;orthogonalLoop=1;jettySize=auto;html=1;exitX=0.5;exitY=1;exitDx=0;exitDy=0;entryX=0.5;entryY=0;entryDx=0;entryDy=0;" parent="1" source="6f0Q5xWEOluiDl8K530b-29" target="6f0Q5xWEOluiDl8K530b-34" edge="1">
          <mxGeometry relative="1" as="geometry" />
        </mxCell>
        <mxCell id="6f0Q5xWEOluiDl8K530b-29" value="Case 4" style="rhombus;whiteSpace=wrap;html=1;fillColor=#f5f5f5;fontColor=#333333;strokeColor=#666666;" parent="1" vertex="1">
          <mxGeometry x="357" y="-335" width="80" height="80" as="geometry" />
        </mxCell>
        <mxCell id="6f0Q5xWEOluiDl8K530b-30" value="richtig" style="edgeStyle=orthogonalEdgeStyle;rounded=0;orthogonalLoop=1;jettySize=auto;html=1;exitX=1;exitY=0.5;exitDx=0;exitDy=0;entryX=0;entryY=0.5;entryDx=0;entryDy=0;" parent="1" source="6f0Q5xWEOluiDl8K530b-29" target="6f0Q5xWEOluiDl8K530b-31" edge="1">
          <mxGeometry relative="1" as="geometry">
            <mxPoint x="437" y="-200" as="sourcePoint" />
          </mxGeometry>
        </mxCell>
        <mxCell id="6f0Q5xWEOluiDl8K530b-99" style="edgeStyle=orthogonalEdgeStyle;rounded=0;orthogonalLoop=1;jettySize=auto;html=1;exitX=1;exitY=0.5;exitDx=0;exitDy=0;entryX=1;entryY=0.5;entryDx=0;entryDy=0;" parent="1" source="6f0Q5xWEOluiDl8K530b-31" target="6f0Q5xWEOluiDl8K530b-62" edge="1">
          <mxGeometry relative="1" as="geometry" />
        </mxCell>
        <mxCell id="6f0Q5xWEOluiDl8K530b-31" value="Apr" style="shape=parallelogram;perimeter=parallelogramPerimeter;whiteSpace=wrap;html=1;fixedSize=1;fillColor=#ffe6cc;strokeColor=#d79b00;" parent="1" vertex="1">
          <mxGeometry x="480" y="-325" width="120" height="60" as="geometry" />
        </mxCell>
        <mxCell id="6f0Q5xWEOluiDl8K530b-32" value="richtig" style="edgeStyle=orthogonalEdgeStyle;rounded=0;orthogonalLoop=1;jettySize=auto;html=1;exitX=1;exitY=0.5;exitDx=0;exitDy=0;entryX=0;entryY=0.5;entryDx=0;entryDy=0;" parent="1" source="6f0Q5xWEOluiDl8K530b-34" target="6f0Q5xWEOluiDl8K530b-35" edge="1">
          <mxGeometry relative="1" as="geometry" />
        </mxCell>
        <mxCell id="6f0Q5xWEOluiDl8K530b-33" value="falsch" style="edgeStyle=orthogonalEdgeStyle;rounded=0;orthogonalLoop=1;jettySize=auto;html=1;exitX=0.5;exitY=1;exitDx=0;exitDy=0;entryX=0.5;entryY=0;entryDx=0;entryDy=0;" parent="1" source="6f0Q5xWEOluiDl8K530b-34" target="6f0Q5xWEOluiDl8K530b-36" edge="1">
          <mxGeometry relative="1" as="geometry" />
        </mxCell>
        <mxCell id="6f0Q5xWEOluiDl8K530b-34" value="Case&amp;nbsp; 5" style="rhombus;whiteSpace=wrap;html=1;fillColor=#f5f5f5;fontColor=#333333;strokeColor=#666666;" parent="1" vertex="1">
          <mxGeometry x="357" y="-230" width="80" height="80" as="geometry" />
        </mxCell>
        <mxCell id="6f0Q5xWEOluiDl8K530b-100" style="edgeStyle=orthogonalEdgeStyle;rounded=0;orthogonalLoop=1;jettySize=auto;html=1;exitX=1;exitY=0.5;exitDx=0;exitDy=0;entryX=1;entryY=0.5;entryDx=0;entryDy=0;" parent="1" source="6f0Q5xWEOluiDl8K530b-35" target="6f0Q5xWEOluiDl8K530b-62" edge="1">
          <mxGeometry relative="1" as="geometry" />
        </mxCell>
        <mxCell id="6f0Q5xWEOluiDl8K530b-35" value="Mai" style="shape=parallelogram;perimeter=parallelogramPerimeter;whiteSpace=wrap;html=1;fixedSize=1;fillColor=#ffe6cc;strokeColor=#d79b00;" parent="1" vertex="1">
          <mxGeometry x="480" y="-220" width="120" height="60" as="geometry" />
        </mxCell>
        <mxCell id="6f0Q5xWEOluiDl8K530b-66" value="falsch" style="edgeStyle=orthogonalEdgeStyle;rounded=0;orthogonalLoop=1;jettySize=auto;html=1;exitX=0.5;exitY=1;exitDx=0;exitDy=0;entryX=0.5;entryY=0;entryDx=0;entryDy=0;" parent="1" source="6f0Q5xWEOluiDl8K530b-36" target="6f0Q5xWEOluiDl8K530b-41" edge="1">
          <mxGeometry relative="1" as="geometry" />
        </mxCell>
        <mxCell id="6f0Q5xWEOluiDl8K530b-36" value="Case 6" style="rhombus;whiteSpace=wrap;html=1;fillColor=#f5f5f5;fontColor=#333333;strokeColor=#666666;" parent="1" vertex="1">
          <mxGeometry x="357" y="-130" width="80" height="80" as="geometry" />
        </mxCell>
        <mxCell id="6f0Q5xWEOluiDl8K530b-37" value="richtig" style="edgeStyle=orthogonalEdgeStyle;rounded=0;orthogonalLoop=1;jettySize=auto;html=1;exitX=1;exitY=0.5;exitDx=0;exitDy=0;entryX=0;entryY=0.5;entryDx=0;entryDy=0;" parent="1" source="6f0Q5xWEOluiDl8K530b-36" target="6f0Q5xWEOluiDl8K530b-38" edge="1">
          <mxGeometry relative="1" as="geometry">
            <mxPoint x="437" y="5" as="sourcePoint" />
          </mxGeometry>
        </mxCell>
        <mxCell id="6f0Q5xWEOluiDl8K530b-101" style="edgeStyle=orthogonalEdgeStyle;rounded=0;orthogonalLoop=1;jettySize=auto;html=1;exitX=1;exitY=0.5;exitDx=0;exitDy=0;entryX=1;entryY=0.5;entryDx=0;entryDy=0;" parent="1" source="6f0Q5xWEOluiDl8K530b-38" target="6f0Q5xWEOluiDl8K530b-62" edge="1">
          <mxGeometry relative="1" as="geometry" />
        </mxCell>
        <mxCell id="6f0Q5xWEOluiDl8K530b-38" value="Jun" style="shape=parallelogram;perimeter=parallelogramPerimeter;whiteSpace=wrap;html=1;fixedSize=1;fillColor=#ffe6cc;strokeColor=#d79b00;" parent="1" vertex="1">
          <mxGeometry x="480" y="-120" width="120" height="60" as="geometry" />
        </mxCell>
        <mxCell id="6f0Q5xWEOluiDl8K530b-39" value="richtig" style="edgeStyle=orthogonalEdgeStyle;rounded=0;orthogonalLoop=1;jettySize=auto;html=1;exitX=1;exitY=0.5;exitDx=0;exitDy=0;entryX=0;entryY=0.5;entryDx=0;entryDy=0;" parent="1" source="6f0Q5xWEOluiDl8K530b-41" target="6f0Q5xWEOluiDl8K530b-42" edge="1">
          <mxGeometry relative="1" as="geometry" />
        </mxCell>
        <mxCell id="6f0Q5xWEOluiDl8K530b-40" value="falsch" style="edgeStyle=orthogonalEdgeStyle;rounded=0;orthogonalLoop=1;jettySize=auto;html=1;exitX=0.5;exitY=1;exitDx=0;exitDy=0;entryX=0.5;entryY=0;entryDx=0;entryDy=0;" parent="1" source="6f0Q5xWEOluiDl8K530b-41" target="6f0Q5xWEOluiDl8K530b-43" edge="1">
          <mxGeometry relative="1" as="geometry" />
        </mxCell>
        <mxCell id="6f0Q5xWEOluiDl8K530b-41" value="Case&amp;nbsp; 7" style="rhombus;whiteSpace=wrap;html=1;fillColor=#f5f5f5;fontColor=#333333;strokeColor=#666666;" parent="1" vertex="1">
          <mxGeometry x="357" y="-30" width="80" height="80" as="geometry" />
        </mxCell>
        <mxCell id="6f0Q5xWEOluiDl8K530b-102" style="edgeStyle=orthogonalEdgeStyle;rounded=0;orthogonalLoop=1;jettySize=auto;html=1;exitX=1;exitY=0.5;exitDx=0;exitDy=0;entryX=1;entryY=0.5;entryDx=0;entryDy=0;" parent="1" source="6f0Q5xWEOluiDl8K530b-42" target="6f0Q5xWEOluiDl8K530b-62" edge="1">
          <mxGeometry relative="1" as="geometry" />
        </mxCell>
        <mxCell id="6f0Q5xWEOluiDl8K530b-42" value="Jul" style="shape=parallelogram;perimeter=parallelogramPerimeter;whiteSpace=wrap;html=1;fixedSize=1;fillColor=#ffe6cc;strokeColor=#d79b00;" parent="1" vertex="1">
          <mxGeometry x="480" y="-20" width="120" height="60" as="geometry" />
        </mxCell>
        <mxCell id="6f0Q5xWEOluiDl8K530b-67" value="falsch" style="edgeStyle=orthogonalEdgeStyle;rounded=0;orthogonalLoop=1;jettySize=auto;html=1;exitX=0.5;exitY=1;exitDx=0;exitDy=0;entryX=0.5;entryY=0;entryDx=0;entryDy=0;" parent="1" source="6f0Q5xWEOluiDl8K530b-43" target="6f0Q5xWEOluiDl8K530b-48" edge="1">
          <mxGeometry relative="1" as="geometry" />
        </mxCell>
        <mxCell id="6f0Q5xWEOluiDl8K530b-43" value="Case 8" style="rhombus;whiteSpace=wrap;html=1;fillColor=#f5f5f5;fontColor=#333333;strokeColor=#666666;" parent="1" vertex="1">
          <mxGeometry x="357" y="70" width="80" height="80" as="geometry" />
        </mxCell>
        <mxCell id="6f0Q5xWEOluiDl8K530b-44" value="richtig" style="edgeStyle=orthogonalEdgeStyle;rounded=0;orthogonalLoop=1;jettySize=auto;html=1;exitX=1;exitY=0.5;exitDx=0;exitDy=0;entryX=0;entryY=0.5;entryDx=0;entryDy=0;" parent="1" source="6f0Q5xWEOluiDl8K530b-43" target="6f0Q5xWEOluiDl8K530b-45" edge="1">
          <mxGeometry relative="1" as="geometry">
            <mxPoint x="437" y="205" as="sourcePoint" />
          </mxGeometry>
        </mxCell>
        <mxCell id="6f0Q5xWEOluiDl8K530b-103" style="edgeStyle=orthogonalEdgeStyle;rounded=0;orthogonalLoop=1;jettySize=auto;html=1;exitX=1;exitY=0.5;exitDx=0;exitDy=0;entryX=1;entryY=0.5;entryDx=0;entryDy=0;" parent="1" source="6f0Q5xWEOluiDl8K530b-45" target="6f0Q5xWEOluiDl8K530b-62" edge="1">
          <mxGeometry relative="1" as="geometry" />
        </mxCell>
        <mxCell id="6f0Q5xWEOluiDl8K530b-45" value="Aug" style="shape=parallelogram;perimeter=parallelogramPerimeter;whiteSpace=wrap;html=1;fixedSize=1;fillColor=#ffe6cc;strokeColor=#d79b00;" parent="1" vertex="1">
          <mxGeometry x="480" y="80" width="120" height="60" as="geometry" />
        </mxCell>
        <mxCell id="6f0Q5xWEOluiDl8K530b-46" value="richtig" style="edgeStyle=orthogonalEdgeStyle;rounded=0;orthogonalLoop=1;jettySize=auto;html=1;exitX=1;exitY=0.5;exitDx=0;exitDy=0;entryX=0;entryY=0.5;entryDx=0;entryDy=0;" parent="1" source="6f0Q5xWEOluiDl8K530b-48" target="6f0Q5xWEOluiDl8K530b-49" edge="1">
          <mxGeometry relative="1" as="geometry" />
        </mxCell>
        <mxCell id="6f0Q5xWEOluiDl8K530b-47" value="falsch" style="edgeStyle=orthogonalEdgeStyle;rounded=0;orthogonalLoop=1;jettySize=auto;html=1;exitX=0.5;exitY=1;exitDx=0;exitDy=0;entryX=0.5;entryY=0;entryDx=0;entryDy=0;" parent="1" source="6f0Q5xWEOluiDl8K530b-48" target="6f0Q5xWEOluiDl8K530b-50" edge="1">
          <mxGeometry relative="1" as="geometry" />
        </mxCell>
        <mxCell id="6f0Q5xWEOluiDl8K530b-48" value="Case&amp;nbsp; 9" style="rhombus;whiteSpace=wrap;html=1;fillColor=#f5f5f5;fontColor=#333333;strokeColor=#666666;" parent="1" vertex="1">
          <mxGeometry x="357" y="170" width="80" height="80" as="geometry" />
        </mxCell>
        <mxCell id="6f0Q5xWEOluiDl8K530b-88" style="edgeStyle=orthogonalEdgeStyle;rounded=0;orthogonalLoop=1;jettySize=auto;html=1;exitX=1;exitY=0.5;exitDx=0;exitDy=0;" parent="1" source="6f0Q5xWEOluiDl8K530b-62" edge="1">
          <mxGeometry relative="1" as="geometry">
            <mxPoint x="500" y="780" as="targetPoint" />
          </mxGeometry>
        </mxCell>
        <mxCell id="6f0Q5xWEOluiDl8K530b-90" style="edgeStyle=orthogonalEdgeStyle;rounded=0;orthogonalLoop=1;jettySize=auto;html=1;exitX=1;exitY=0.5;exitDx=0;exitDy=0;entryX=1;entryY=0.5;entryDx=0;entryDy=0;" parent="1" source="6f0Q5xWEOluiDl8K530b-49" target="6f0Q5xWEOluiDl8K530b-62" edge="1">
          <mxGeometry relative="1" as="geometry" />
        </mxCell>
        <mxCell id="6f0Q5xWEOluiDl8K530b-49" value="Sep" style="shape=parallelogram;perimeter=parallelogramPerimeter;whiteSpace=wrap;html=1;fixedSize=1;fillColor=#ffe6cc;strokeColor=#d79b00;" parent="1" vertex="1">
          <mxGeometry x="480" y="180" width="120" height="60" as="geometry" />
        </mxCell>
        <mxCell id="6f0Q5xWEOluiDl8K530b-68" value="falsch" style="edgeStyle=orthogonalEdgeStyle;rounded=0;orthogonalLoop=1;jettySize=auto;html=1;exitX=0.5;exitY=1;exitDx=0;exitDy=0;entryX=0.5;entryY=0;entryDx=0;entryDy=0;" parent="1" source="6f0Q5xWEOluiDl8K530b-50" target="6f0Q5xWEOluiDl8K530b-55" edge="1">
          <mxGeometry relative="1" as="geometry" />
        </mxCell>
        <mxCell id="6f0Q5xWEOluiDl8K530b-50" value="Case 10" style="rhombus;whiteSpace=wrap;html=1;fillColor=#f5f5f5;fontColor=#333333;strokeColor=#666666;" parent="1" vertex="1">
          <mxGeometry x="357" y="270" width="80" height="80" as="geometry" />
        </mxCell>
        <mxCell id="6f0Q5xWEOluiDl8K530b-51" value="richtig" style="edgeStyle=orthogonalEdgeStyle;rounded=0;orthogonalLoop=1;jettySize=auto;html=1;exitX=1;exitY=0.5;exitDx=0;exitDy=0;entryX=0;entryY=0.5;entryDx=0;entryDy=0;" parent="1" source="6f0Q5xWEOluiDl8K530b-50" target="6f0Q5xWEOluiDl8K530b-52" edge="1">
          <mxGeometry relative="1" as="geometry">
            <mxPoint x="437" y="405" as="sourcePoint" />
          </mxGeometry>
        </mxCell>
        <mxCell id="6f0Q5xWEOluiDl8K530b-87" style="edgeStyle=orthogonalEdgeStyle;rounded=0;orthogonalLoop=1;jettySize=auto;html=1;exitX=1;exitY=0.5;exitDx=0;exitDy=0;entryX=1;entryY=0.5;entryDx=0;entryDy=0;" parent="1" source="6f0Q5xWEOluiDl8K530b-52" target="6f0Q5xWEOluiDl8K530b-62" edge="1">
          <mxGeometry relative="1" as="geometry" />
        </mxCell>
        <mxCell id="6f0Q5xWEOluiDl8K530b-52" value="Okt" style="shape=parallelogram;perimeter=parallelogramPerimeter;whiteSpace=wrap;html=1;fixedSize=1;fillColor=#ffe6cc;strokeColor=#d79b00;" parent="1" vertex="1">
          <mxGeometry x="480" y="280" width="120" height="60" as="geometry" />
        </mxCell>
        <mxCell id="6f0Q5xWEOluiDl8K530b-53" value="richtig" style="edgeStyle=orthogonalEdgeStyle;rounded=0;orthogonalLoop=1;jettySize=auto;html=1;exitX=1;exitY=0.5;exitDx=0;exitDy=0;entryX=0;entryY=0.5;entryDx=0;entryDy=0;" parent="1" source="6f0Q5xWEOluiDl8K530b-55" target="6f0Q5xWEOluiDl8K530b-56" edge="1">
          <mxGeometry relative="1" as="geometry" />
        </mxCell>
        <mxCell id="6f0Q5xWEOluiDl8K530b-54" value="falsch" style="edgeStyle=orthogonalEdgeStyle;rounded=0;orthogonalLoop=1;jettySize=auto;html=1;exitX=0.5;exitY=1;exitDx=0;exitDy=0;entryX=0.5;entryY=0;entryDx=0;entryDy=0;" parent="1" source="6f0Q5xWEOluiDl8K530b-55" target="6f0Q5xWEOluiDl8K530b-57" edge="1">
          <mxGeometry relative="1" as="geometry" />
        </mxCell>
        <mxCell id="6f0Q5xWEOluiDl8K530b-55" value="Case 11" style="rhombus;whiteSpace=wrap;html=1;fillColor=#f5f5f5;fontColor=#333333;strokeColor=#666666;" parent="1" vertex="1">
          <mxGeometry x="357" y="370" width="80" height="80" as="geometry" />
        </mxCell>
        <mxCell id="6f0Q5xWEOluiDl8K530b-85" style="edgeStyle=orthogonalEdgeStyle;rounded=0;orthogonalLoop=1;jettySize=auto;html=1;exitX=1;exitY=0.5;exitDx=0;exitDy=0;entryX=1;entryY=0.5;entryDx=0;entryDy=0;" parent="1" source="6f0Q5xWEOluiDl8K530b-56" target="6f0Q5xWEOluiDl8K530b-62" edge="1">
          <mxGeometry relative="1" as="geometry" />
        </mxCell>
        <mxCell id="6f0Q5xWEOluiDl8K530b-56" value="Nov" style="shape=parallelogram;perimeter=parallelogramPerimeter;whiteSpace=wrap;html=1;fixedSize=1;fillColor=#ffe6cc;strokeColor=#d79b00;" parent="1" vertex="1">
          <mxGeometry x="480" y="380" width="120" height="60" as="geometry" />
        </mxCell>
        <mxCell id="6f0Q5xWEOluiDl8K530b-69" value="falsch" style="edgeStyle=orthogonalEdgeStyle;rounded=0;orthogonalLoop=1;jettySize=auto;html=1;exitX=0.5;exitY=1;exitDx=0;exitDy=0;entryX=0.5;entryY=0;entryDx=0;entryDy=0;" parent="1" source="6f0Q5xWEOluiDl8K530b-57" target="6f0Q5xWEOluiDl8K530b-63" edge="1">
          <mxGeometry relative="1" as="geometry" />
        </mxCell>
        <mxCell id="6f0Q5xWEOluiDl8K530b-57" value="Case 12" style="rhombus;whiteSpace=wrap;html=1;fillColor=#f5f5f5;fontColor=#333333;strokeColor=#666666;" parent="1" vertex="1">
          <mxGeometry x="357" y="470" width="80" height="80" as="geometry" />
        </mxCell>
        <mxCell id="6f0Q5xWEOluiDl8K530b-58" value="richtig" style="edgeStyle=orthogonalEdgeStyle;rounded=0;orthogonalLoop=1;jettySize=auto;html=1;exitX=1;exitY=0.5;exitDx=0;exitDy=0;entryX=0;entryY=0.5;entryDx=0;entryDy=0;" parent="1" source="6f0Q5xWEOluiDl8K530b-57" target="6f0Q5xWEOluiDl8K530b-59" edge="1">
          <mxGeometry relative="1" as="geometry">
            <mxPoint x="437" y="605" as="sourcePoint" />
          </mxGeometry>
        </mxCell>
        <mxCell id="6f0Q5xWEOluiDl8K530b-84" style="edgeStyle=orthogonalEdgeStyle;rounded=0;orthogonalLoop=1;jettySize=auto;html=1;exitX=1;exitY=0.5;exitDx=0;exitDy=0;entryX=1;entryY=0.5;entryDx=0;entryDy=0;" parent="1" source="6f0Q5xWEOluiDl8K530b-59" target="6f0Q5xWEOluiDl8K530b-62" edge="1">
          <mxGeometry relative="1" as="geometry" />
        </mxCell>
        <mxCell id="6f0Q5xWEOluiDl8K530b-59" value="Dez" style="shape=parallelogram;perimeter=parallelogramPerimeter;whiteSpace=wrap;html=1;fixedSize=1;fillColor=#ffe6cc;strokeColor=#d79b00;" parent="1" vertex="1">
          <mxGeometry x="480" y="480" width="120" height="60" as="geometry" />
        </mxCell>
        <mxCell id="6f0Q5xWEOluiDl8K530b-63" value="Default" style="rhombus;whiteSpace=wrap;html=1;fillColor=#f5f5f5;fontColor=#333333;strokeColor=#666666;" parent="1" vertex="1">
          <mxGeometry x="357" y="570" width="80" height="80" as="geometry" />
        </mxCell>
        <mxCell id="6f0Q5xWEOluiDl8K530b-64" value="richtig" style="edgeStyle=orthogonalEdgeStyle;rounded=0;orthogonalLoop=1;jettySize=auto;html=1;exitX=1;exitY=0.5;exitDx=0;exitDy=0;entryX=0;entryY=0.5;entryDx=0;entryDy=0;" parent="1" source="6f0Q5xWEOluiDl8K530b-63" target="6f0Q5xWEOluiDl8K530b-65" edge="1">
          <mxGeometry relative="1" as="geometry">
            <mxPoint x="437" y="705" as="sourcePoint" />
          </mxGeometry>
        </mxCell>
        <mxCell id="6f0Q5xWEOluiDl8K530b-86" style="edgeStyle=orthogonalEdgeStyle;rounded=0;orthogonalLoop=1;jettySize=auto;html=1;exitX=1;exitY=0.5;exitDx=0;exitDy=0;entryX=1;entryY=0.5;entryDx=0;entryDy=0;" parent="1" source="6f0Q5xWEOluiDl8K530b-65" target="6f0Q5xWEOluiDl8K530b-62" edge="1">
          <mxGeometry relative="1" as="geometry" />
        </mxCell>
        <mxCell id="6f0Q5xWEOluiDl8K530b-65" value="Nix" style="shape=parallelogram;perimeter=parallelogramPerimeter;whiteSpace=wrap;html=1;fixedSize=1;fillColor=#ffe6cc;strokeColor=#d79b00;" parent="1" vertex="1">
          <mxGeometry x="480" y="580" width="120" height="60" as="geometry" />
        </mxCell>
        <mxCell id="6f0Q5xWEOluiDl8K530b-70" value="A" style="text;html=1;strokeColor=none;fillColor=none;align=center;verticalAlign=middle;whiteSpace=wrap;rounded=0;" parent="1" vertex="1">
          <mxGeometry x="467" y="-590" width="60" height="30" as="geometry" />
        </mxCell>
        <mxCell id="6f0Q5xWEOluiDl8K530b-71" value="A" style="text;html=1;strokeColor=none;fillColor=none;align=center;verticalAlign=middle;whiteSpace=wrap;rounded=0;" parent="1" vertex="1">
          <mxGeometry x="467" y="-490" width="60" height="30" as="geometry" />
        </mxCell>
        <mxCell id="6f0Q5xWEOluiDl8K530b-72" value="A" style="text;html=1;strokeColor=none;fillColor=none;align=center;verticalAlign=middle;whiteSpace=wrap;rounded=0;" parent="1" vertex="1">
          <mxGeometry x="467" y="-395" width="60" height="30" as="geometry" />
        </mxCell>
        <mxCell id="6f0Q5xWEOluiDl8K530b-73" value="A" style="text;html=1;strokeColor=none;fillColor=none;align=center;verticalAlign=middle;whiteSpace=wrap;rounded=0;" parent="1" vertex="1">
          <mxGeometry x="467" y="-295" width="60" height="30" as="geometry" />
        </mxCell>
        <mxCell id="6f0Q5xWEOluiDl8K530b-74" value="A" style="text;html=1;strokeColor=none;fillColor=none;align=center;verticalAlign=middle;whiteSpace=wrap;rounded=0;" parent="1" vertex="1">
          <mxGeometry x="467" y="-190" width="60" height="30" as="geometry" />
        </mxCell>
        <mxCell id="6f0Q5xWEOluiDl8K530b-75" value="A" style="text;html=1;strokeColor=none;fillColor=none;align=center;verticalAlign=middle;whiteSpace=wrap;rounded=0;" parent="1" vertex="1">
          <mxGeometry x="467" y="-90" width="60" height="30" as="geometry" />
        </mxCell>
        <mxCell id="6f0Q5xWEOluiDl8K530b-76" value="A" style="text;html=1;strokeColor=none;fillColor=none;align=center;verticalAlign=middle;whiteSpace=wrap;rounded=0;" parent="1" vertex="1">
          <mxGeometry x="467" y="10" width="60" height="30" as="geometry" />
        </mxCell>
        <mxCell id="6f0Q5xWEOluiDl8K530b-77" value="A" style="text;html=1;strokeColor=none;fillColor=none;align=center;verticalAlign=middle;whiteSpace=wrap;rounded=0;" parent="1" vertex="1">
          <mxGeometry x="467" y="110" width="60" height="30" as="geometry" />
        </mxCell>
        <mxCell id="6f0Q5xWEOluiDl8K530b-78" value="A" style="text;html=1;strokeColor=none;fillColor=none;align=center;verticalAlign=middle;whiteSpace=wrap;rounded=0;" parent="1" vertex="1">
          <mxGeometry x="467" y="210" width="60" height="30" as="geometry" />
        </mxCell>
        <mxCell id="6f0Q5xWEOluiDl8K530b-79" value="A" style="text;html=1;strokeColor=none;fillColor=none;align=center;verticalAlign=middle;whiteSpace=wrap;rounded=0;" parent="1" vertex="1">
          <mxGeometry x="467" y="310" width="60" height="30" as="geometry" />
        </mxCell>
        <mxCell id="6f0Q5xWEOluiDl8K530b-80" value="A" style="text;html=1;strokeColor=none;fillColor=none;align=center;verticalAlign=middle;whiteSpace=wrap;rounded=0;" parent="1" vertex="1">
          <mxGeometry x="467" y="410" width="60" height="30" as="geometry" />
        </mxCell>
        <mxCell id="6f0Q5xWEOluiDl8K530b-81" value="A" style="text;html=1;strokeColor=none;fillColor=none;align=center;verticalAlign=middle;whiteSpace=wrap;rounded=0;" parent="1" vertex="1">
          <mxGeometry x="467" y="510" width="60" height="30" as="geometry" />
        </mxCell>
        <mxCell id="6f0Q5xWEOluiDl8K530b-82" value="A" style="text;html=1;strokeColor=none;fillColor=none;align=center;verticalAlign=middle;whiteSpace=wrap;rounded=0;" parent="1" vertex="1">
          <mxGeometry x="467" y="610" width="60" height="30" as="geometry" />
        </mxCell>
        <mxCell id="6f0Q5xWEOluiDl8K530b-62" value="End" style="ellipse;whiteSpace=wrap;html=1;fillColor=#dae8fc;strokeColor=#6c8ebf;" parent="1" vertex="1">
          <mxGeometry x="414" y="760" width="120" height="80" as="geometry" />
        </mxCell>
      </root>
    </mxGraphModel>
  </diagram>
</mxfile>
